<?xml version="1.0" encoding="utf-8"?>
<!-- Generator: Adobe Illustrator 22.1.0, SVG Export Plug-In . SVG Version: 6.00 Build 0)  -->
<svg version="1.1" id="图层_1" xmlns="http://www.w3.org/2000/svg" xmlns:xlink="http://www.w3.org/1999/xlink" x="0px" y="0px"
	 viewBox="0 0 387 123.7" enable-background="new 0 0 387 123.7" xml:space="preserve">
<path fill="#0068FF" stroke="#0068FF" stroke-miterlimit="10" d="M94.4,116.8H24.1c-11,0-20-9-20-20V26.5c0-11,9-20,20-20h70.2
	c11,0,20,9,20,20v70.2C114.4,107.8,105.4,116.8,94.4,116.8z"/>
<g>
	<rect x="15.7" y="1.7" fill="none" width="87" height="110"/>
	<path fill="#FFFFFF" d="M45,59.8L22.7,75.2c-1.2,0.8-1.9,0.9-2.2,0.4c-0.2-0.3-0.3-0.5-0.3-0.7c0-0.3,0.5-1,1.4-1.8l16.3-14.6
		l-16.6-15c-1-0.9-1.4-1.7-1-2.2c0.4-0.6,1.1-0.5,2.1,0.2L45,57c0.8,0.6,1.2,1,1.2,1.4C46.2,58.8,45.8,59.3,45,59.8z"/>
	<path fill="#FFFFFF" d="M86.9,87.8H50.3v-5.3h36.5L86.9,87.8L86.9,87.8z"/>
</g>
<g>
	<path fill="#FFFFFF" d="M202.7,65.1c0,6-0.9,11.3-2.6,15.8c-1.7,4.5-4.1,8.2-7.3,11.2s-7,5.2-11.4,6.6c-4.5,1.4-9.4,2.2-14.8,2.2
		c-2.4,0-5.2-0.1-8.4-0.3c-3.2-0.2-6.2-0.8-8.9-1.7c-3.4-1.1-5.1-3.1-5.1-6V37c0-1.3,0.4-2.2,1.1-3c0.7-0.7,1.7-1.2,3-1.6
		c2.6-0.8,5.4-1.4,8.5-1.6c3-0.3,6-0.4,8.9-0.4c5.5,0,10.5,0.7,15.1,2.1c4.6,1.4,8.5,3.6,11.8,6.5s5.8,6.5,7.6,10.9
		C201.8,54.2,202.7,59.3,202.7,65.1z M190.4,65.2c0-4.4-0.6-8.2-1.9-11.3c-1.3-3.2-3-5.7-5.2-7.7s-4.8-3.5-7.8-4.5s-6.2-1.4-9.6-1.4
		c-3.9,0-7.2,0.3-9.8,0.8v49.2c1.5,0.4,3.1,0.6,5,0.7c1.8,0.1,3.7,0.2,5.5,0.2c7.7,0,13.6-2.2,17.7-6.5
		C188.3,80.2,190.4,73.8,190.4,65.2z"/>
	<path fill="#FFFFFF" d="M257.6,82.2c-0.6,0.5-1.4,1-2.5,1.3c-1,0.4-2.2,0.6-3.6,0.6c-1.6,0-2.9-0.2-4.1-0.7c-1.2-0.5-2-1.2-2.4-2.3
		c-3.4-7.9-6.4-14.9-8.9-21s-4.5-11.2-6-15.3h-0.6c-0.2,5.3-0.4,10.1-0.6,14.5c-0.2,4.4-0.4,8.7-0.6,13c-0.2,4.2-0.5,8.5-0.7,12.9
		c-0.3,4.4-0.5,9.1-0.8,14.2c-0.6,0.2-1.4,0.4-2.3,0.6c-0.9,0.2-1.9,0.3-3,0.3c-4,0-6-1.6-6-4.9c0-1,0.1-2.7,0.2-5.1
		s0.3-5.4,0.4-8.8c0.2-3.4,0.4-7.1,0.7-11.2s0.5-8.2,0.8-12.4s0.6-8.3,0.9-12.4c0.3-4,0.6-7.8,0.9-11.2c0.6-0.6,1.6-1.2,3-1.9
		s3.1-1,5.1-1c2.4,0,4.3,0.4,5.7,1.3c1.4,0.9,2.5,2.1,3.3,3.8c1.2,2.6,2.4,5.4,3.7,8.4c1.3,3,2.5,6.1,3.8,9.1
		c1.3,3.1,2.5,6.1,3.7,9.2c1.2,3,2.3,5.9,3.5,8.6h0.6c1.4-3.7,2.8-7.4,4.3-11c1.4-3.6,2.9-7.1,4.2-10.5c1.4-3.3,2.7-6.5,3.9-9.5
		c1.2-3,2.4-5.6,3.4-8c0.8-0.4,1.8-0.7,3-1s2.4-0.4,3.7-0.4c2.5,0,4.3,0.4,5.5,1.1s2,1.8,2.4,3.2c0.3,1.3,0.6,3.5,1,6.6
		s0.7,6.6,1.1,10.6s0.7,8.3,1.1,12.8s0.7,8.8,1,13s0.6,8.1,0.8,11.6c0.2,3.5,0.4,6.3,0.4,8.3c-0.8,0.5-1.7,0.9-2.6,1.2
		c-0.9,0.3-2,0.4-3.3,0.4c-1.6,0-2.9-0.3-4.1-1s-1.8-1.9-2-3.8c-0.3-5.1-0.6-10-0.8-14.9c-0.3-4.9-0.5-9.5-0.7-13.9
		s-0.4-8.4-0.6-12.1c-0.2-3.7-0.4-6.9-0.5-9.5h-0.4c-1.4,3.8-3.3,8.6-5.7,14.5C264.5,65.4,261.4,72.9,257.6,82.2z"/>
	<path fill="#FFFFFF" d="M314.1,99.9c-1,0.2-2.1,0.3-3.2,0.3c-2.3,0-4-0.4-5-1.3s-1.5-2.3-1.5-4.3V31.9c0.6-0.1,1.4-0.3,2.4-0.5
		s2.1-0.3,3.2-0.3c2.2,0,3.8,0.4,4.8,1.2s1.6,2.3,1.6,4.3v62.6C315.8,99.5,315.1,99.7,314.1,99.9z"/>
	<path fill="#FFFFFF" d="M361.2,41.7v57.6c-0.5,0.2-1.3,0.4-2.3,0.6s-2.1,0.3-3.2,0.3c-2.3,0-3.9-0.4-4.9-1.3s-1.4-2.3-1.4-4.3V41.7
		h-19.7c-0.4-0.5-0.7-1.2-0.9-2c-0.3-0.8-0.4-1.7-0.4-2.8c0-1.6,0.4-2.9,1.2-3.7c0.8-0.9,1.8-1.3,3.2-1.3h48.5
		c0.3,0.4,0.6,1.1,0.8,1.9c0.3,0.8,0.4,1.7,0.4,2.7c0,3.5-1.4,5.2-4.3,5.2C378.2,41.7,361.2,41.7,361.2,41.7z"/>
</g>
</svg>
